<svg xmlns="http://www.w3.org/2000/svg" viewBox="0 0 1112.96 1252.03"><defs><style>.cls-1{fill:#3e2c41;}</style></defs><g id="Layer_2" data-name="Layer 2"><g id="Layer_1-2" data-name="Layer 1"><path class="cls-1" d="M864.56,415.14a42.6,42.6,0,0,0-17-22.26,42.9,42.9,0,0,0-71.84-43.71,39.78,39.78,0,0,0-3.81-6.6,42.91,42.91,0,1,0-69.12-49.86,61.57,61.57,0,0,0-76.45.64,42.84,42.84,0,0,0-35-8.94c-.11-.35-.18-.69-.29-1a48.23,48.23,0,0,0-6.45-12.8,48.1,48.1,0,1,0-81-48.07,48.1,48.1,0,0,0-56,30.39,46.13,46.13,0,0,0-4-3.46A48.11,48.11,0,0,0,379.69,321a47.29,47.29,0,0,0-5.18,10.54c-.42.11-.85.21-1.26.34a42.91,42.91,0,0,0-10.34,76.47c-.07.21-.15.41-.23.62-5.92-1.36-27.94-14-52.61-3.45-12.83,5.49-22.94,14.58-27.15,26.84a42.92,42.92,0,0,0-45.36,65.7,42.9,42.9,0,0,0,37.5,64.47,48.41,48.41,0,0,0-7.48,13.85A48.11,48.11,0,0,0,211,638.33c.39,1.19.82,2.34,1.28,3.46a48.16,48.16,0,0,0,32.34,28c1.07.28,2.16.52,3.25.72A85.22,85.22,0,0,1,293.44,635l.68-.22a85.72,85.72,0,0,1,107.16,51.44l1,2.34L423.85,740l158.63-52.33L565.3,635.6a85.72,85.72,0,0,1,162.57-54.41c.43,1.27.84,2.55,1.21,3.85l12.26,50.23,118.18-39-22.27-67.51c15.86-6,25.27-23.53,26.28-41.19.07-1.14.1-2.27.09-3.41a50.22,50.22,0,0,0-2.4-15.22,43,43,0,0,0-5.75-11.4,42.94,42.94,0,0,0,10.6-21.62A42.3,42.3,0,0,0,864.56,415.14ZM546.28,392.42a15.77,15.77,0,0,0-8.17,6.2l-11.43,16.86L512.06,401.3a29.62,29.62,0,0,0-48.79,30.5,31.55,31.55,0,0,0,1.25,3.11l10.64,23.19-25.49,1a30,30,0,0,0-8.11,1.44A29.67,29.67,0,0,0,422.71,498l-32.47,10.71a63.89,63.89,0,0,1,37.69-79.55,63.82,63.82,0,0,1,94.33-62.48,50.18,50.18,0,0,1,76.63,25.2l-32.46,10.71A16,16,0,0,0,546.28,392.42Zm159.51,39.77A25,25,0,0,0,657.14,437l-2.57,20.8-19.86-6.7a23.59,23.59,0,0,0-15.1-.08,24,24,0,0,0-15.23,30.22L571.91,492a58.2,58.2,0,0,1,37-73.4,57.49,57.49,0,0,1,19.16-2.92,59.19,59.19,0,0,1,110.2,5.84Z"/><path class="cls-1" d="M150.18,475.75A48.1,48.1,0,0,0,59,475.22a48.11,48.11,0,1,0-2.7,94.26A48.1,48.1,0,1,0,140,523.28,48.06,48.06,0,0,0,150.18,475.75Z"/><path class="cls-1" d="M254.82,211a42.91,42.91,0,0,0-81.34-.47,42.91,42.91,0,0,0-45.35,65.69,42.9,42.9,0,0,0,73.65,44,42.93,42.93,0,0,0,43.94-66.82A42.89,42.89,0,0,0,254.82,211Z"/><path class="cls-1" d="M952.42,114a42.91,42.91,0,0,0-81.34-.47,42.91,42.91,0,0,0-45.35,65.69,42.9,42.9,0,0,0,73.65,44,42.93,42.93,0,0,0,43.94-66.82A42.89,42.89,0,0,0,952.42,114Z"/><path class="cls-1" d="M748,106.48a48.1,48.1,0,0,0-50.81-75.71,48.1,48.1,0,1,0-79.48,50.75A48.1,48.1,0,1,0,703,124.77,48.09,48.09,0,0,0,748,106.48Z"/><path class="cls-1" d="M125,477.83A48.1,48.1,0,1,1,41.31,524,48.12,48.12,0,0,1,1,512.42,48.05,48.05,0,0,0,56.3,569.48,48.1,48.1,0,1,0,140,523.28,48,48,0,0,0,136.61,455,48.35,48.35,0,0,1,125,477.83Z"/><path class="cls-1" d="M229,202.51A42.91,42.91,0,0,1,185,269.33a42.86,42.86,0,0,1-60,13.49,42.89,42.89,0,0,0,76.78,37.36,42.9,42.9,0,0,0,49.7-55.41,43.23,43.23,0,0,0-5.76-11.41,42.87,42.87,0,0,0-8.22-64.88A42.94,42.94,0,0,1,229,202.51Z"/><path class="cls-1" d="M733,61a48.08,48.08,0,0,1-45,18.29,48.12,48.12,0,0,1-74.4,21.35c-1-.76-1.9-1.57-2.81-2.38A48.11,48.11,0,0,0,703,124.77a48.07,48.07,0,0,0,39-83.38A47.79,47.79,0,0,1,733,61Z"/><path class="cls-1" d="M928.33,111a42.91,42.91,0,0,1-43.94,66.82,42.9,42.9,0,0,1-62.9,11.46,42.91,42.91,0,0,0,77.9,34,42.92,42.92,0,0,0,43.93-66.82A42.9,42.9,0,0,0,938,93.58,43.05,43.05,0,0,1,928.33,111Z"/><path class="cls-1" d="M691.12,1177.41l-73.48,24.24-214-509.23c-.48-1.28-.92-2.56-1.33-3.84a85.72,85.72,0,0,1,163-53l17.18,52.07,92.19,279.47a255.68,255.68,0,0,0,16.45,210.27Z"/><path class="cls-1" d="M934.91,799.3q-9.87-.76-19.86-.76a254,254,0,0,0-99.5,20.1,258,258,0,0,0-26.43,13L727.87,581.19l-.61-2.48A85.71,85.71,0,0,1,782.78,473.6l.68-.22a85.69,85.69,0,0,1,110.16,61.25Z"/><polygon class="cls-1" points="896.21 1078.14 896.21 1109.75 860.04 1121.68 849.39 1078.14 896.21 1078.14"/><polygon class="cls-1" points="979.08 1082.41 944.26 1093.89 944.26 1078.14 978.4 1078.14 979.08 1082.41"/><path class="cls-1" d="M978.41,1078.14H944.27v15.75l34.81-11.48Zm-118.36,43.54,36.16-11.93v-31.61H849.4Z"/><path class="cls-1" d="M944.12,858.32a199,199,0,0,0-29.07-2.12,197.86,197.86,0,0,0-197.91,197.91c0,109.31,88.6,197.92,197.91,197.92S1113,1163.42,1113,1054.11C1113,954.69,1039.64,872.38,944.12,858.32ZM996,1078.14H978.41l.67,4.27-34.81,11.48v39.95a24,24,0,0,1-48.06,0v-24.09l-36.16,11.93-10.65-43.54H836.53a24,24,0,1,1,0-48.05h59.68v-55.7a24,24,0,0,1,48.06,0v55.7H996a24,24,0,1,1,0,48.05Z"/></g></g></svg>